<svg xmlns="http://www.w3.org/2000/svg" width="1200" height="700" viewBox="0 0 1200 700" role="img" aria-label="ECG and PPG waveform teaching diagram">
  <defs>
    <marker id="arrow" viewBox="0 0 10 10" refX="8" refY="5" markerWidth="7" markerHeight="7" orient="auto-start-reverse">
      <path d="M 0 0 L 10 5 L 0 10 z" fill="#4b4a45"/>
    </marker>
    <marker id="arrowGreen" viewBox="0 0 10 10" refX="8" refY="5" markerWidth="7" markerHeight="7" orient="auto-start-reverse">
      <path d="M 0 0 L 10 5 L 0 10 z" fill="#2e5f53"/>
    </marker>
    <style>
      .bg { fill: #fbfaf7; }
      .grid { stroke: #e4ded3; stroke-width: 1; }
      .axis { stroke: #b9b2a7; stroke-width: 1.4; }
      .ecg { fill: none; stroke: #1f5f8b; stroke-width: 3.4; stroke-linejoin: round; stroke-linecap: round; }
      .ppg { fill: none; stroke: #b23a48; stroke-width: 3.6; stroke-linejoin: round; stroke-linecap: round; }
      .artifact { fill: none; stroke: #6a4c93; stroke-width: 2.2; stroke-linejoin: round; stroke-linecap: round; }
      .label { font: 700 21px Arial, sans-serif; fill: #25221f; }
      .small { font: 600 17px Arial, sans-serif; fill: #25221f; }
      .tiny { font: 500 15px Arial, sans-serif; fill: #5a554d; }
      .box { fill: #fff; stroke: #d4cec3; stroke-width: 1.2; rx: 8; }
      .note { fill: #fff7df; stroke: #d9c57c; stroke-width: 1.2; rx: 8; }
      .greenNote { fill: #edf7f2; stroke: #a7c9bc; stroke-width: 1.2; rx: 8; }
      .dash { stroke: #706a60; stroke-width: 1.5; stroke-dasharray: 7 6; }
      .arrow { stroke: #4b4a45; stroke-width: 2; fill: none; marker-end: url(#arrow); }
      .double { stroke: #756d62; stroke-width: 2.5; fill: none; marker-start: url(#arrow); marker-end: url(#arrow); }
      .doubleGreen { stroke: #2e5f53; stroke-width: 2.5; fill: none; marker-start: url(#arrowGreen); marker-end: url(#arrowGreen); }
    </style>
  </defs>
  <rect class="bg" width="100%" height="100%"/>
  <text x="600" y="46" text-anchor="middle" class="label" style="font-size:28px">ECG / PPG ???????</text>
  <text x="600" y="75" text-anchor="middle" class="tiny">??????????? HR?HRV?PAT/PTT ? signal quality</text>

  <!-- grid -->
  <line class="grid" x1="133.1" y1="105" x2="133.1" y2="620"/><line class="grid" x1="259.3" y1="105" x2="259.3" y2="620"/><line class="grid" x1="385.5" y1="105" x2="385.5" y2="620"/><line class="grid" x1="511.7" y1="105" x2="511.7" y2="620"/><line class="grid" x1="637.9" y1="105" x2="637.9" y2="620"/><line class="grid" x1="764.0" y1="105" x2="764.0" y2="620"/><line class="grid" x1="890.2" y1="105" x2="890.2" y2="620"/><line class="grid" x1="1016.4" y1="105" x2="1016.4" y2="620"/>
  <line class="axis" x1="70" y1="250" x2="1130" y2="250" opacity="0.35"/>
  <line class="axis" x1="70" y1="515" x2="1130" y2="515" opacity="0.35"/>

  <polyline class="ecg" points="70.0,248.6 70.7,248.6 71.4,248.6 72.1,248.6 72.8,248.5 73.5,248.5 74.2,248.5 74.9,248.5 75.7,248.5 76.4,248.5 77.1,248.5 77.8,248.5 78.5,248.4 79.2,248.4 79.9,248.4 80.6,248.4 81.3,248.4 82.0,248.4 82.7,248.4 83.4,248.4 84.1,248.4 84.8,248.3 85.6,248.3 86.3,248.3 87.0,248.3 87.7,248.3 88.4,248.3 89.1,248.3 89.8,248.3 90.5,248.3 91.2,248.2 91.9,248.2 92.6,248.2 93.3,248.2 94.0,248.2 94.7,248.2 95.5,248.2 96.2,248.2 96.9,248.2 97.6,248.2 98.3,248.2 99.0,248.1 99.7,248.1 100.4,248.1 101.1,248.1 101.8,248.1 102.5,248.1 103.2,248.1 103.9,248.1 104.6,248.1 105.4,248.1 106.1,248.1 106.8,248.1 107.5,248.0 108.2,248.0 108.9,248.0 109.6,248.0 110.3,248.0 111.0,248.0 111.7,248.0 112.4,248.0 113.1,248.0 113.8,248.0 114.5,248.0 115.3,248.0 116.0,248.0 116.7,248.0 117.4,248.0 118.1,248.0 118.8,247.9 119.5,247.9 120.2,247.9 120.9,247.9 121.6,247.9 122.3,247.9 123.0,247.9 123.7,247.9 124.4,247.9 125.2,247.9 125.9,247.9 126.6,247.9 127.3,247.8 128.0,247.8 128.7,247.8 129.4,247.8 130.1,247.7 130.8,247.7 131.5,247.7 132.2,247.6 132.9,247.5 133.6,247.4 134.3,247.3 135.1,247.2 135.8,247.0 136.5,246.8 137.2,246.6 137.9,246.4 138.6,246.1 139.3,245.7 140.0,245.3 140.7,244.9 141.4,244.4 142.1,243.8 142.8,243.2 143.5,242.5 144.2,241.8 145.0,241.0 145.7,240.1 146.4,239.2 147.1,238.2 147.8,237.3 148.5,236.2 149.2,235.2 149.9,234.1 150.6,233.1 151.3,232.1 152.0,231.1 152.7,230.2 153.4,229.3 154.1,228.5 154.9,227.9 155.6,227.3 156.3,226.8 157.0,226.5 157.7,226.3 158.4,226.3 159.1,226.3 159.8,226.6 160.5,226.9 161.2,227.4 161.9,228.0 162.6,228.7 163.3,229.5 164.0,230.4 164.8,231.3 165.5,232.3 166.2,233.3 166.9,234.4 167.6,235.4 168.3,236.5 169.0,237.5 169.7,238.5 170.4,239.4 171.1,240.3 171.8,241.2 172.5,242.0 173.2,242.7 173.9,243.4 174.7,244.0 175.4,244.6 176.1,245.1 176.8,245.5 177.5,245.9 178.2,246.2 178.9,246.5 179.6,246.8 180.3,247.0 181.0,247.2 181.7,247.4 182.4,247.5 183.1,247.6 183.8,247.7 184.6,247.8 185.3,247.8 186.0,247.9 186.7,247.9 187.4,248.0 188.1,248.0 188.8,248.0 189.5,248.0 190.2,248.1 190.9,248.1 191.6,248.2 192.3,248.4 193.0,248.8 193.7,249.5 194.5,250.9 195.2,253.0 195.9,256.1 196.6,260.2 197.3,265.0 198.0,269.9 198.7,274.0 199.4,276.2 200.1,275.7 200.8,272.0 201.5,264.7 202.2,254.1 202.9,240.3 203.6,223.5 204.4,204.0 205.1,182.4 205.8,159.8 206.5,138.0 207.2,119.1 207.9,105.7 208.6,99.7 209.3,102.2 210.0,112.9 210.7,130.7 211.4,153.4 212.1,178.5 212.8,203.7 213.5,227.1 214.3,247.3 215.0,263.6 215.7,275.5 216.4,283.1 217.1,286.6 217.8,286.6 218.5,283.8 219.2,279.1 219.9,273.5 220.6,267.7 221.3,262.5 222.0,258.0 222.7,254.6 223.4,252.1 224.2,250.3 224.9,249.2 225.6,248.6 226.3,248.1 227.0,247.9 227.7,247.7 228.4,247.6 229.1,247.4 229.8,247.3 230.5,247.2 231.2,247.1 231.9,246.9 232.6,246.7 233.3,246.6 234.1,246.4 234.8,246.1 235.5,245.9 236.2,245.7 236.9,245.4 237.6,245.1 238.3,244.8 239.0,244.5 239.7,244.1 240.4,243.8 241.1,243.4 241.8,243.0 242.5,242.5 243.2,242.1 244.0,241.6 244.7,241.0 245.4,240.5 246.1,239.9 246.8,239.3 247.5,238.7 248.2,238.1 248.9,237.4 249.6,236.7 250.3,235.9 251.0,235.2 251.7,234.4 252.4,233.6 253.1,232.8 253.9,231.9 254.6,231.1 255.3,230.2 256.0,229.3 256.7,228.3 257.4,227.4 258.1,226.5 258.8,225.5 259.5,224.6 260.2,223.6 260.9,222.6 261.6,221.7 262.3,220.7 263.0,219.8 263.8,218.8 264.5,217.9 265.2,217.0 265.9,216.1 266.6,215.2 267.3,214.4 268.0,213.6 268.7,212.8 269.4,212.1 270.1,211.4 270.8,210.7 271.5,210.1 272.2,209.5 272.9,208.9 273.7,208.5 274.4,208.0 275.1,207.7 275.8,207.3 276.5,207.1 277.2,206.9 277.9,206.7 278.6,206.6 279.3,206.6 280.0,206.6 280.7,206.7 281.4,206.9 282.1,207.1 282.8,207.4 283.6,207.7 284.3,208.1 285.0,208.5 285.7,209.0 286.4,209.6 287.1,210.2 287.8,210.8 288.5,211.5 289.2,212.2 289.9,213.0 290.6,213.8 291.3,214.6 292.0,215.5 292.7,216.3 293.5,217.3 294.2,218.2 294.9,219.1 295.6,220.1 296.3,221.1 297.0,222.1 297.7,223.1 298.4,224.1 299.1,225.1 299.8,226.1 300.5,227.0 301.2,228.0 301.9,229.0 302.6,229.9 303.4,230.9 304.1,231.8 304.8,232.7 305.5,233.6 306.2,234.5 306.9,235.3 307.6,236.2 308.3,237.0 309.0,237.7 309.7,238.5 310.4,239.2 311.1,239.9 311.8,240.6 312.5,241.2 313.3,241.8 314.0,242.4 314.7,243.0 315.4,243.5 316.1,244.0 316.8,244.5 317.5,245.0 318.2,245.4 318.9,245.8 319.6,246.2 320.3,246.6 321.0,246.9 321.7,247.2 322.4,247.5 323.2,247.8 323.9,248.1 324.6,248.3 325.3,248.6 326.0,248.8 326.7,249.0 327.4,249.2 328.1,249.4 328.8,249.5 329.5,249.7 330.2,249.8 330.9,249.9 331.6,250.1 332.3,250.2 333.1,250.3 333.8,250.4 334.5,250.5 335.2,250.5 335.9,250.6 336.6,250.7 337.3,250.7 338.0,250.8 338.7,250.9 339.4,250.9 340.1,250.9 340.8,251.0 341.5,251.0 342.2,251.1 343.0,251.1 343.7,251.1 344.4,251.2 345.1,251.2 345.8,251.2 346.5,251.2 347.2,251.3 347.9,251.3 348.6,251.3 349.3,251.3 350.0,251.4 350.7,251.4 351.4,251.4 352.1,251.4 352.9,251.4 353.6,251.4 354.3,251.5 355.0,251.5 355.7,251.5 356.4,251.5 357.1,251.5 357.8,251.5 358.5,251.5 359.2,251.6 359.9,251.6 360.6,251.6 361.3,251.6 362.0,251.6 362.8,251.6 363.5,251.6 364.2,251.6 364.9,251.6 365.6,251.7 366.3,251.7 367.0,251.7 367.7,251.7 368.4,251.7 369.1,251.7 369.8,251.7 370.5,251.7 371.2,251.7 371.9,251.8 372.7,251.8 373.4,251.8 374.1,251.8 374.8,251.8 375.5,251.8 376.2,251.8 376.9,251.8 377.6,251.8 378.3,251.8 379.0,251.8 379.7,251.8 380.4,251.8 381.1,251.8 381.8,251.8 382.6,251.8 383.3,251.7 384.0,251.7 384.7,251.6 385.4,251.6 386.1,251.5 386.8,251.4 387.5,251.3 388.2,251.1 388.9,250.9 389.6,250.7 390.3,250.5 391.0,250.2 391.7,249.8 392.5,249.4 393.2,249.0 393.9,248.5 394.6,247.9 395.3,247.3 396.0,246.6 396.7,245.9 397.4,245.1 398.1,244.2 398.8,243.3 399.5,242.4 400.2,241.4 400.9,240.4 401.6,239.3 402.4,238.3 403.1,237.2 403.8,236.2 404.5,235.3 405.2,234.3 405.9,233.5 406.6,232.7 407.3,232.1 408.0,231.5 408.7,231.1 409.4,230.7 410.1,230.6 410.8,230.5 411.5,230.6 412.3,230.9 413.0,231.2 413.7,231.7 414.4,232.3 415.1,233.0 415.8,233.8 416.5,234.7 417.2,235.7 417.9,236.6 418.6,237.7 419.3,238.7 420.0,239.8 420.7,240.8 421.4,241.8 422.2,242.8 422.9,243.8 423.6,244.7 424.3,245.5 425.0,246.3 425.7,247.0 426.4,247.7 427.1,248.3 427.8,248.8 428.5,249.3 429.2,249.8 429.9,250.1 430.6,250.5 431.3,250.7 432.1,251.0 432.8,251.2 433.5,251.4 434.2,251.5 434.9,251.6 435.6,251.7 436.3,251.8 437.0,251.9 437.7,251.9 438.4,252.0 439.1,252.0 439.8,252.0 440.5,252.1 441.2,252.1 442.0,252.1 442.7,252.1 443.4,252.2 444.1,252.2 444.8,252.4 445.5,252.8 446.2,253.6 446.9,255.0 447.6,257.2 448.3,260.4 449.0,264.6 449.7,269.4 450.4,274.3 451.1,278.2 451.9,280.2 452.6,279.4 453.3,275.3 454.0,267.7 454.7,256.8 455.4,242.6 456.1,225.6 456.8,205.8 457.5,184.0 458.2,161.4 458.9,139.7 459.6,121.3 460.3,108.5 461.0,103.3 461.8,106.5 462.5,118.0 463.2,136.3 463.9,159.3 464.6,184.5 465.3,209.6 466.0,232.7 466.7,252.6 467.4,268.4 468.1,279.9 468.8,287.1 469.5,290.2 470.2,289.9 470.9,286.8 471.7,282.0 472.4,276.3 473.1,270.6 473.8,265.3 474.5,261.0 475.2,257.6 475.9,255.1 476.6,253.5 477.3,252.4 478.0,251.7 478.7,251.3 479.4,251.0 480.1,250.8 480.8,250.7 481.6,250.5 482.3,250.4 483.0,250.2 483.7,250.1 484.4,249.9 485.1,249.7 485.8,249.5 486.5,249.3 487.2,249.0 487.9,248.8 488.6,248.5 489.3,248.2 490.0,247.9 490.7,247.6 491.5,247.2 492.2,246.8 492.9,246.4 493.6,246.0 494.3,245.6 495.0,245.1 495.7,244.6 496.4,244.1 497.1,243.5 497.8,242.9 498.5,242.3 499.2,241.7 499.9,241.1 500.6,240.4 501.4,239.7 502.1,238.9 502.8,238.2 503.5,237.4 504.2,236.6 504.9,235.7 505.6,234.9 506.3,234.0 507.0,233.1 507.7,232.2 508.4,231.3 509.1,230.3 509.8,229.3 510.5,228.4 511.3,227.4 512.0,226.4 512.7,225.4 513.4,224.4 514.1,223.4 514.8,222.4 515.5,221.5 516.2,220.5 516.9,219.5 517.6,218.6 518.3,217.7 519.0,216.8 519.7,215.9 520.4,215.1 521.2,214.3 521.9,213.5 522.6,212.7 523.3,212.1 524.0,211.4 524.7,210.8 525.4,210.2 526.1,209.7 526.8,209.3 527.5,208.9 528.2,208.5 528.9,208.2 529.6,208.0 530.3,207.8 531.1,207.7 531.8,207.6 532.5,207.7 533.2,207.7 533.9,207.8 534.6,208.0 535.3,208.3 536.0,208.6 536.7,208.9 537.4,209.3 538.1,209.8 538.8,210.3 539.5,210.9 540.2,211.5 541.0,212.2 541.7,212.8 542.4,213.6 543.1,214.3 543.8,215.1 544.5,216.0 545.2,216.8 545.9,217.7 546.6,218.6 547.3,219.5 548.0,220.5 548.7,221.4 549.4,222.4 550.1,223.3 550.9,224.3 551.6,225.3 552.3,226.2 553.0,227.2 553.7,228.1 554.4,229.1 555.1,230.0 555.8,230.9 556.5,231.8 557.2,232.6 557.9,233.5 558.6,234.3 559.3,235.1 560.0,235.9 560.8,236.7 561.5,237.4 562.2,238.1 562.9,238.8 563.6,239.5 564.3,240.1 565.0,240.7 565.7,241.3 566.4,241.9 567.1,242.4 567.8,242.9 568.5,243.4 569.2,243.8 569.9,244.2 570.7,244.6 571.4,245.0 572.1,245.4 572.8,245.7 573.5,246.0 574.2,246.3 574.9,246.6 575.6,246.8 576.3,247.1 577.0,247.3 577.7,247.5 578.4,247.6 579.1,247.8 579.8,248.0 580.6,248.1 581.3,248.2 582.0,248.4 582.7,248.5 583.4,248.6 584.1,248.6 584.8,248.7 585.5,248.8 586.2,248.9 586.9,248.9 587.6,249.0 588.3,249.0 589.0,249.0 589.7,249.1 590.5,249.1 591.2,249.1 591.9,249.1 592.6,249.2 593.3,249.2 594.0,249.2 594.7,249.2 595.4,249.2 596.1,249.2 596.8,249.2 597.5,249.2 598.2,249.2 598.9,249.2 599.6,249.2 600.4,249.2 601.1,249.2 601.8,249.1 602.5,249.1 603.2,249.1 603.9,249.1 604.6,249.1 605.3,249.1 606.0,249.1 606.7,249.1 607.4,249.1 608.1,249.0 608.8,249.0 609.5,249.0 610.3,249.0 611.0,249.0 611.7,249.0 612.4,249.0 613.1,248.9 613.8,248.9 614.5,248.9 615.2,248.9 615.9,248.9 616.6,248.9 617.3,248.9 618.0,248.8 618.7,248.8 619.4,248.8 620.2,248.8 620.9,248.8 621.6,248.8 622.3,248.8 623.0,248.7 623.7,248.7 624.4,248.7 625.1,248.7 625.8,248.7 626.5,248.7 627.2,248.7 627.9,248.6 628.6,248.6 629.3,248.6 630.1,248.6 630.8,248.6 631.5,248.6 632.2,248.5 632.9,248.5 633.6,248.5 634.3,248.4 635.0,248.4 635.7,248.3 636.4,248.3 637.1,248.2 637.8,248.1 638.5,248.0 639.2,247.9 640.0,247.7 640.7,247.6 641.4,247.4 642.1,247.1 642.8,246.9 643.5,246.5 644.2,246.2 644.9,245.8 645.6,245.3 646.3,244.8 647.0,244.2 647.7,243.6 648.4,242.8 649.1,242.1 649.9,241.3 650.6,240.4 651.3,239.4 652.0,238.5 652.7,237.5 653.4,236.4 654.1,235.4 654.8,234.3 655.5,233.3 656.2,232.2 656.9,231.3 657.6,230.3 658.3,229.5 659.0,228.7 659.8,228.0 660.5,227.5 661.2,227.0 661.9,226.7 662.6,226.5 663.3,226.5 664.0,226.6 664.7,226.8 665.4,227.2 666.1,227.7 666.8,228.3 667.5,229.0 668.2,229.8 668.9,230.7 669.7,231.6 670.4,232.6 671.1,233.6 671.8,234.7 672.5,235.7 673.2,236.8 673.9,237.8 674.6,238.7 675.3,239.7 676.0,240.6 676.7,241.4 677.4,242.2 678.1,242.9 678.8,243.5 679.6,244.1 680.3,244.7 681.0,245.1 681.7,245.6 682.4,245.9 683.1,246.3 683.8,246.5 684.5,246.8 685.2,247.0 685.9,247.1 686.6,247.3 687.3,247.4 688.0,247.5 688.7,247.6 689.5,247.6 690.2,247.7 690.9,247.7 691.6,247.8 692.3,247.8 693.0,247.8 693.7,247.8 694.4,247.8 695.1,247.9 695.8,247.9 696.5,248.0 697.2,248.2 697.9,248.6 698.6,249.5 699.4,250.9 700.1,253.2 700.8,256.5 701.5,260.8 702.2,265.7 702.9,270.5 703.6,274.3 704.3,276.0 705.0,274.9 705.7,270.5 706.4,262.6 707.1,251.3 707.8,236.9 708.5,219.6 709.3,199.6 710.0,177.7 710.7,155.1 711.4,133.6 712.1,115.6 712.8,103.5 713.5,99.0 714.2,103.1 714.9,115.3 715.6,134.2 716.3,157.5 717.0,182.8 717.7,207.8 718.4,230.7 719.2,250.2 719.9,265.6 720.6,276.7 721.3,283.5 722.0,286.2 722.7,285.6 723.4,282.4 724.1,277.5 724.8,271.8 725.5,266.0 726.2,260.9 726.9,256.6 727.6,253.3 728.3,251.0 729.1,249.4 729.8,248.4 730.5,247.7 731.2,247.4 731.9,247.1 732.6,246.9 733.3,246.8 734.0,246.7 734.7,246.5 735.4,246.4 736.1,246.2 736.8,246.1 737.5,245.9 738.2,245.7 739.0,245.5 739.7,245.3 740.4,245.0 741.1,244.8 741.8,244.5 742.5,244.2 743.2,243.9 743.9,243.6 744.6,243.2 745.3,242.8 746.0,242.4 746.7,242.0 747.4,241.5 748.1,241.0 748.9,240.5 749.6,240.0 750.3,239.4 751.0,238.9 751.7,238.3 752.4,237.6 753.1,236.9 753.8,236.3 754.5,235.5 755.2,234.8 755.9,234.0 756.6,233.2 757.3,232.4 758.0,231.6 758.8,230.7 759.5,229.9 760.2,229.0 760.9,228.0 761.6,227.1 762.3,226.2 763.0,225.2 763.7,224.3 764.4,223.3 765.1,222.3 765.8,221.4 766.5,220.4 767.2,219.4 767.9,218.5 768.7,217.5 769.4,216.6 770.1,215.7 770.8,214.8 771.5,213.9 772.2,213.1 772.9,212.3 773.6,211.5 774.3,210.8 775.0,210.1 775.7,209.4 776.4,208.8 777.1,208.2 777.8,207.7 778.6,207.2 779.3,206.8 780.0,206.4 780.7,206.1 781.4,205.8 782.1,205.6 782.8,205.5 783.5,205.4 784.2,205.4 784.9,205.4 785.6,205.5 786.3,205.7 787.0,205.9 787.7,206.2 788.5,206.5 789.2,206.9 789.9,207.4 790.6,207.9 791.3,208.4 792.0,209.0 792.7,209.6 793.4,210.3 794.1,211.1 794.8,211.8 795.5,212.6 796.2,213.5 796.9,214.3 797.6,215.2 798.4,216.1 799.1,217.1 799.8,218.0 800.5,219.0 801.2,220.0 801.9,221.0 802.6,222.0 803.3,222.9 804.0,223.9 804.7,224.9 805.4,225.9 806.1,226.9 806.8,227.9 807.5,228.8 808.3,229.7 809.0,230.7 809.7,231.6 810.4,232.5 811.1,233.3 811.8,234.2 812.5,235.0 813.2,235.8 813.9,236.5 814.6,237.3 815.3,238.0 816.0,238.7 816.7,239.4 817.4,240.0 818.2,240.6 818.9,241.2 819.6,241.8 820.3,242.3 821.0,242.8 821.7,243.3 822.4,243.7 823.1,244.2 823.8,244.6 824.5,244.9 825.2,245.3 825.9,245.6 826.6,246.0 827.3,246.3 828.1,246.6 828.8,246.8 829.5,247.1 830.2,247.3 830.9,247.5 831.6,247.7 832.3,247.9 833.0,248.1 833.7,248.2 834.4,248.4 835.1,248.5 835.8,248.6 836.5,248.8 837.2,248.9 838.0,249.0 838.7,249.1 839.4,249.2 840.1,249.2 840.8,249.3 841.5,249.4 842.2,249.5 842.9,249.5 843.6,249.6 844.3,249.6 845.0,249.7 845.7,249.7 846.4,249.8 847.1,249.8 847.9,249.8 848.6,249.9 849.3,249.9 850.0,249.9 850.7,250.0 851.4,250.0 852.1,250.0 852.8,250.1 853.5,250.1 854.2,250.1 854.9,250.1 855.6,250.1 856.3,250.2 857.0,250.2 857.8,250.2 858.5,250.2 859.2,250.2 859.9,250.3 860.6,250.3 861.3,250.3 862.0,250.3 862.7,250.3 863.4,250.4 864.1,250.4 864.8,250.4 865.5,250.4 866.2,250.4 866.9,250.4 867.7,250.5 868.4,250.5 869.1,250.5 869.8,250.5 870.5,250.5 871.2,250.5 871.9,250.6 872.6,250.6 873.3,250.6 874.0,250.6 874.7,250.6 875.4,250.6 876.1,250.7 876.8,250.7 877.6,250.7 878.3,250.7 879.0,250.7 879.7,250.7 880.4,250.8 881.1,250.8 881.8,250.8 882.5,250.8 883.2,250.8 883.9,250.8 884.6,250.8 885.3,250.8 886.0,250.8 886.7,250.8 887.5,250.8 888.2,250.8 888.9,250.7 889.6,250.7 890.3,250.6 891.0,250.5 891.7,250.4 892.4,250.3 893.1,250.2 893.8,250.0 894.5,249.8 895.2,249.5 895.9,249.2 896.6,248.9 897.4,248.5 898.1,248.1 898.8,247.6 899.5,247.0 900.2,246.4 900.9,245.7 901.6,244.9 902.3,244.1 903.0,243.3 903.7,242.4 904.4,241.4 905.1,240.4 905.8,239.4 906.5,238.4 907.3,237.3 908.0,236.3 908.7,235.3 909.4,234.4 910.1,233.5 910.8,232.6 911.5,231.9 912.2,231.3 912.9,230.7 913.6,230.3 914.3,230.0 915.0,229.9 915.7,229.9 916.4,230.0 917.2,230.3 917.9,230.7 918.6,231.2 919.3,231.9 920.0,232.6 920.7,233.4 921.4,234.3 922.1,235.3 922.8,236.3 923.5,237.3 924.2,238.4 924.9,239.5 925.6,240.5 926.3,241.5 927.1,242.5 927.8,243.5 928.5,244.4 929.2,245.2 929.9,246.0 930.6,246.7 931.3,247.4 932.0,248.0 932.7,248.5 933.4,249.0 934.1,249.4 934.8,249.8 935.5,250.2 936.2,250.4 937.0,250.7 937.7,250.9 938.4,251.1 939.1,251.2 939.8,251.4 940.5,251.5 941.2,251.6 941.9,251.6 942.6,251.7 943.3,251.7 944.0,251.8 944.7,251.8 945.4,251.8 946.1,251.9 946.9,251.9 947.6,251.9 948.3,252.0 949.0,252.1 949.7,252.3 950.4,252.8 951.1,253.7 951.8,255.2 952.5,257.6 953.2,261.0 953.9,265.4 954.6,270.3 955.3,275.1 956.0,278.7 956.8,280.2 957.5,278.8 958.2,274.1 958.9,265.8 959.6,254.3 960.3,239.6 961.0,222.0 961.7,201.8 962.4,179.8 963.1,157.2 963.8,135.9 964.5,118.4 965.2,107.0 965.9,103.3 966.7,108.2 967.4,121.1 968.1,140.5 968.8,164.1 969.5,189.5 970.2,214.4 970.9,237.0 971.6,256.1 972.3,271.1 973.0,281.8 973.7,288.2 974.4,290.6 975.1,289.7 975.8,286.3 976.6,281.2 977.3,275.5 978.0,269.8 978.7,264.7 979.4,260.5 980.1,257.3 980.8,255.1 981.5,253.5 982.2,252.6 982.9,252.0 983.6,251.6 984.3,251.3 985.0,251.2 985.7,251.0 986.5,250.9 987.2,250.7 987.9,250.6 988.6,250.4 989.3,250.3 990.0,250.1 990.7,249.9 991.4,249.7 992.1,249.4 992.8,249.2 993.5,248.9 994.2,248.6 994.9,248.3 995.6,248.0 996.4,247.7 997.1,247.3 997.8,246.9 998.5,246.5 999.2,246.0 999.9,245.6 1000.6,245.1 1001.3,244.6 1002.0,244.0 1002.7,243.4 1003.4,242.8 1004.1,242.2 1004.8,241.6 1005.5,240.9 1006.3,240.2 1007.0,239.5 1007.7,238.7 1008.4,237.9 1009.1,237.1 1009.8,236.3 1010.5,235.4 1011.2,234.6 1011.9,233.7 1012.6,232.7 1013.3,231.8 1014.0,230.9 1014.7,229.9 1015.4,229.0 1016.2,228.0 1016.9,227.0 1017.6,226.0 1018.3,225.0 1019.0,224.1 1019.7,223.1 1020.4,222.1 1021.1,221.1 1021.8,220.2 1022.5,219.3 1023.2,218.4 1023.9,217.5 1024.6,216.6 1025.3,215.8 1026.1,215.0 1026.8,214.2 1027.5,213.5 1028.2,212.8 1028.9,212.2 1029.6,211.6 1030.3,211.1 1031.0,210.6 1031.7,210.1 1032.4,209.8 1033.1,209.4 1033.8,209.2 1034.5,208.9 1035.2,208.8 1036.0,208.7 1036.7,208.7 1037.4,208.7 1038.1,208.8 1038.8,208.9 1039.5,209.1 1040.2,209.4 1040.9,209.7 1041.6,210.1 1042.3,210.5 1043.0,211.0 1043.7,211.5 1044.4,212.1 1045.1,212.7 1045.9,213.4 1046.6,214.1 1047.3,214.8 1048.0,215.6 1048.7,216.4 1049.4,217.3 1050.1,218.1 1050.8,219.0 1051.5,219.9 1052.2,220.9 1052.9,221.8 1053.6,222.8 1054.3,223.7 1055.0,224.7 1055.8,225.7 1056.5,226.6 1057.2,227.6 1057.9,228.5 1058.6,229.5 1059.3,230.4 1060.0,231.3 1060.7,232.3 1061.4,233.2 1062.1,234.0 1062.8,234.9 1063.5,235.7 1064.2,236.5 1064.9,237.3 1065.7,238.1 1066.4,238.8 1067.1,239.5 1067.8,240.2 1068.5,240.9 1069.2,241.5 1069.9,242.1 1070.6,242.7 1071.3,243.2 1072.0,243.8 1072.7,244.3 1073.4,244.7 1074.1,245.2 1074.8,245.6 1075.6,246.0 1076.3,246.4 1077.0,246.7 1077.7,247.1 1078.4,247.4 1079.1,247.7 1079.8,247.9 1080.5,248.2 1081.2,248.4 1081.9,248.6 1082.6,248.8 1083.3,249.0 1084.0,249.2 1084.7,249.3 1085.5,249.5 1086.2,249.6 1086.9,249.7 1087.6,249.8 1088.3,249.9 1089.0,250.0 1089.7,250.1 1090.4,250.1 1091.1,250.2 1091.8,250.2 1092.5,250.3 1093.2,250.3 1093.9,250.4 1094.6,250.4 1095.4,250.4 1096.1,250.5 1096.8,250.5 1097.5,250.5 1098.2,250.5 1098.9,250.5 1099.6,250.5 1100.3,250.5 1101.0,250.5 1101.7,250.5 1102.4,250.5 1103.1,250.5 1103.8,250.5 1104.5,250.5 1105.3,250.5 1106.0,250.5 1106.7,250.5 1107.4,250.5 1108.1,250.5 1108.8,250.4 1109.5,250.4 1110.2,250.4 1110.9,250.4 1111.6,250.4 1112.3,250.4 1113.0,250.4 1113.7,250.3 1114.4,250.3 1115.2,250.3 1115.9,250.3 1116.6,250.3 1117.3,250.3 1118.0,250.3 1118.7,250.2 1119.4,250.2 1120.1,250.2 1120.8,250.2 1121.5,250.2 1122.2,250.2 1122.9,250.1 1123.6,250.1 1124.3,250.1 1125.1,250.1 1125.8,250.1 1126.5,250.1 1127.2,250.0 1127.9,250.0 1128.6,250.0 1129.3,250.0 1130.0,250.0"/>
  <polyline class="ppg" points="70.0,514.4 70.7,514.4 71.4,514.4 72.1,514.4 72.8,514.4 73.5,514.4 74.2,514.4 74.9,514.4 75.7,514.4 76.4,514.4 77.1,514.4 77.8,514.4 78.5,514.4 79.2,514.3 79.9,514.3 80.6,514.3 81.3,514.3 82.0,514.3 82.7,514.3 83.4,514.3 84.1,514.3 84.8,514.3 85.6,514.3 86.3,514.3 87.0,514.3 87.7,514.3 88.4,514.3 89.1,514.3 89.8,514.3 90.5,514.3 91.2,514.2 91.9,514.2 92.6,514.2 93.3,514.2 94.0,514.2 94.7,514.2 95.5,514.2 96.2,514.2 96.9,514.2 97.6,514.2 98.3,514.2 99.0,514.2 99.7,514.2 100.4,514.2 101.1,514.2 101.8,514.2 102.5,514.2 103.2,514.2 103.9,514.1 104.6,514.1 105.4,514.1 106.1,514.1 106.8,514.1 107.5,514.1 108.2,514.1 108.9,514.1 109.6,514.1 110.3,514.1 111.0,514.1 111.7,514.1 112.4,514.1 113.1,514.1 113.8,514.1 114.5,514.1 115.3,514.1 116.0,514.1 116.7,514.1 117.4,514.0 118.1,514.0 118.8,514.0 119.5,514.0 120.2,514.0 120.9,514.0 121.6,514.0 122.3,514.0 123.0,514.0 123.7,514.0 124.4,514.0 125.2,514.0 125.9,514.0 126.6,514.0 127.3,514.0 128.0,514.0 128.7,514.0 129.4,514.0 130.1,514.0 130.8,514.0 131.5,513.9 132.2,513.9 132.9,513.9 133.6,513.9 134.3,513.9 135.1,513.9 135.8,513.9 136.5,513.9 137.2,513.9 137.9,513.9 138.6,513.9 139.3,513.9 140.0,513.9 140.7,513.9 141.4,513.9 142.1,513.9 142.8,513.9 143.5,513.9 144.2,513.9 145.0,513.9 145.7,513.9 146.4,513.9 147.1,513.9 147.8,513.8 148.5,513.8 149.2,513.8 149.9,513.8 150.6,513.8 151.3,513.8 152.0,513.8 152.7,513.8 153.4,513.8 154.1,513.8 154.9,513.8 155.6,513.8 156.3,513.8 157.0,513.8 157.7,513.8 158.4,513.8 159.1,513.8 159.8,513.8 160.5,513.8 161.2,513.8 161.9,513.8 162.6,513.8 163.3,513.8 164.0,513.8 164.8,513.8 165.5,513.7 166.2,513.7 166.9,513.7 167.6,513.7 168.3,513.7 169.0,513.7 169.7,513.7 170.4,513.7 171.1,513.7 171.8,513.7 172.5,513.7 173.2,513.7 173.9,513.7 174.7,513.7 175.4,513.7 176.1,513.7 176.8,513.7 177.5,513.7 178.2,513.7 178.9,513.7 179.6,513.7 180.3,513.7 181.0,513.7 181.7,513.7 182.4,513.7 183.1,513.7 183.8,513.7 184.6,513.7 185.3,513.7 186.0,513.7 186.7,513.7 187.4,513.6 188.1,513.6 188.8,513.6 189.5,513.6 190.2,513.6 190.9,513.6 191.6,513.6 192.3,513.6 193.0,513.6 193.7,513.6 194.5,513.6 195.2,513.6 195.9,513.6 196.6,513.6 197.3,513.6 198.0,513.6 198.7,513.6 199.4,513.6 200.1,513.6 200.8,513.6 201.5,513.6 202.2,513.6 202.9,513.6 203.6,513.6 204.4,513.6 205.1,513.6 205.8,513.6 206.5,513.6 207.2,513.6 207.9,513.6 208.6,513.6 209.3,513.6 210.0,513.6 210.7,513.6 211.4,513.6 212.1,513.6 212.8,513.6 213.5,513.6 214.3,513.6 215.0,513.6 215.7,513.6 216.4,513.6 217.1,513.6 217.8,513.5 218.5,513.5 219.2,513.5 219.9,513.5 220.6,513.5 221.3,513.5 222.0,513.5 222.7,513.5 223.4,513.5 224.2,513.5 224.9,513.5 225.6,513.5 226.3,513.5 227.0,513.5 227.7,513.5 228.4,513.5 229.1,513.5 229.8,513.5 230.5,513.5 231.2,513.5 231.9,513.5 232.6,513.5 233.3,513.5 234.1,513.5 234.8,513.5 235.5,513.5 236.2,513.5 236.9,513.5 237.6,513.5 238.3,513.5 239.0,513.5 239.7,513.5 240.4,513.5 241.1,513.5 241.8,513.5 242.5,513.5 243.2,513.5 244.0,513.5 244.7,513.5 245.4,513.5 246.1,513.5 246.8,513.5 247.5,513.5 248.2,513.5 248.9,513.5 249.6,513.5 250.3,513.5 251.0,513.5 251.7,513.5 252.4,513.5 253.1,513.5 253.9,513.5 254.6,513.5 255.3,513.5 256.0,513.5 256.7,513.5 257.4,513.5 258.1,513.5 258.8,513.5 259.5,513.5 260.2,513.5 260.9,513.5 261.6,513.5 262.3,513.5 263.0,513.5 263.8,513.5 264.5,513.5 265.2,513.5 265.9,513.5 266.6,513.5 267.3,513.5 268.0,513.5 268.7,513.5 269.4,513.5 270.1,513.5 270.8,513.5 271.5,513.5 272.2,513.5 272.9,513.5 273.7,513.5 274.4,513.5 275.1,504.4 275.8,495.1 276.5,486.3 277.2,478.1 277.9,470.5 278.6,463.4 279.3,456.8 280.0,450.6 280.7,444.9 281.4,439.6 282.1,434.6 282.8,430.0 283.6,425.8 284.3,421.9 285.0,418.2 285.7,414.9 286.4,411.8 287.1,409.0 287.8,406.4 288.5,404.0 289.2,401.8 289.9,399.9 290.6,398.1 291.3,396.4 292.0,395.0 292.7,393.7 293.5,392.5 294.2,391.5 294.9,390.6 295.6,389.8 296.3,389.1 297.0,388.5 297.7,388.0 298.4,387.6 299.1,387.3 299.8,387.1 300.5,386.9 301.2,386.9 301.9,386.8 302.6,386.9 303.4,387.0 304.1,387.1 304.8,387.4 305.5,387.6 306.2,387.9 306.9,388.2 307.6,388.6 308.3,389.0 309.0,389.4 309.7,389.9 310.4,390.4 311.1,390.9 311.8,391.5 312.5,392.0 313.3,392.6 314.0,393.2 314.7,393.9 315.4,394.5 316.1,395.2 316.8,395.8 317.5,396.5 318.2,397.2 318.9,397.9 319.6,398.6 320.3,399.3 321.0,400.1 321.7,400.8 322.4,401.5 323.2,402.3 323.9,403.0 324.6,403.8 325.3,404.5 326.0,405.3 326.7,406.0 327.4,406.8 328.1,407.5 328.8,408.3 329.5,409.1 330.2,409.8 330.9,410.6 331.6,411.3 332.3,412.1 333.1,412.8 333.8,413.6 334.5,414.3 335.2,415.1 335.9,415.8 336.6,416.5 337.3,417.2 338.0,418.0 338.7,418.7 339.4,419.4 340.1,420.1 340.8,420.8 341.5,421.5 342.2,422.2 343.0,422.9 343.7,423.6 344.4,424.2 345.1,424.9 345.8,425.6 346.5,426.4 347.2,427.1 347.9,427.9 348.6,428.7 349.3,429.5 350.0,430.3 350.7,431.2 351.4,432.2 352.1,433.2 352.9,434.3 353.6,435.4 354.3,436.5 355.0,437.7 355.7,438.9 356.4,440.1 357.1,441.2 357.8,442.4 358.5,443.4 359.2,444.4 359.9,445.3 360.6,446.1 361.3,446.7 362.0,447.1 362.8,447.4 363.5,447.5 364.2,447.5 364.9,447.3 365.6,447.0 366.3,446.6 367.0,446.0 367.7,445.4 368.4,444.8 369.1,444.1 369.8,443.4 370.5,442.7 371.2,442.1 371.9,441.6 372.7,441.1 373.4,440.6 374.1,440.3 374.8,440.0 375.5,439.8 376.2,439.7 376.9,439.7 377.6,439.7 378.3,439.8 379.0,440.0 379.7,440.2 380.4,440.5 381.1,440.8 381.8,441.2 382.6,441.6 383.3,442.0 384.0,442.5 384.7,443.0 385.4,443.6 386.1,444.2 386.8,444.8 387.5,445.4 388.2,446.1 388.9,446.8 389.6,447.5 390.3,448.2 391.0,449.0 391.7,449.7 392.5,450.5 393.2,451.3 393.9,452.1 394.6,452.9 395.3,453.7 396.0,454.6 396.7,455.4 397.4,456.2 398.1,457.0 398.8,457.9 399.5,458.7 400.2,459.5 400.9,460.3 401.6,461.1 402.4,461.9 403.1,462.6 403.8,463.4 404.5,464.1 405.2,464.9 405.9,465.6 406.6,466.3 407.3,466.9 408.0,467.6 408.7,468.2 409.4,468.9 410.1,469.5 410.8,470.1 411.5,470.6 412.3,471.2 413.0,471.7 413.7,472.3 414.4,472.8 415.1,473.3 415.8,473.7 416.5,474.2 417.2,474.7 417.9,475.1 418.6,475.5 419.3,475.9 420.0,476.3 420.7,476.7 421.4,477.1 422.2,477.5 422.9,477.8 423.6,478.2 424.3,478.5 425.0,478.9 425.7,479.2 426.4,479.5 427.1,479.9 427.8,480.2 428.5,480.5 429.2,480.8 429.9,481.1 430.6,481.4 431.3,481.7 432.1,481.9 432.8,482.2 433.5,482.5 434.2,482.8 434.9,483.1 435.6,483.3 436.3,483.6 437.0,483.9 437.7,484.1 438.4,484.4 439.1,484.6 439.8,484.9 440.5,485.1 441.2,485.4 442.0,485.6 442.7,485.9 443.4,486.1 444.1,486.3 444.8,486.6 445.5,486.8 446.2,487.0 446.9,487.3 447.6,487.5 448.3,487.7 449.0,488.0 449.7,488.2 450.4,488.4 451.1,488.6 451.9,488.8 452.6,489.1 453.3,489.3 454.0,489.5 454.7,489.7 455.4,489.9 456.1,490.1 456.8,490.3 457.5,490.5 458.2,490.7 458.9,490.9 459.6,491.1 460.3,491.3 461.0,491.5 461.8,491.7 462.5,491.9 463.2,492.1 463.9,492.3 464.6,492.5 465.3,492.7 466.0,492.9 466.7,493.0 467.4,493.2 468.1,493.4 468.8,493.6 469.5,493.8 470.2,493.9 470.9,494.1 471.7,494.3 472.4,494.5 473.1,494.6 473.8,494.8 474.5,495.0 475.2,495.1 475.9,495.3 476.6,495.5 477.3,495.6 478.0,495.8 478.7,496.0 479.4,496.1 480.1,496.3 480.8,496.4 481.6,496.6 482.3,496.8 483.0,496.9 483.7,497.1 484.4,497.2 485.1,497.4 485.8,497.5 486.5,497.7 487.2,497.8 487.9,498.0 488.6,498.1 489.3,498.2 490.0,498.4 490.7,498.5 491.5,498.7 492.2,498.8 492.9,498.9 493.6,499.1 494.3,499.2 495.0,499.4 495.7,499.5 496.4,499.6 497.1,499.7 497.8,499.9 498.5,500.0 499.2,500.1 499.9,500.3 500.6,500.4 501.4,500.5 502.1,500.6 502.8,500.8 503.5,500.9 504.2,501.0 504.9,501.1 505.6,501.3 506.3,501.4 507.0,501.5 507.7,501.6 508.4,501.7 509.1,501.8 509.8,502.0 510.5,502.1 511.3,502.2 512.0,502.3 512.7,502.4 513.4,502.5 514.1,502.6 514.8,502.7 515.5,502.8 516.2,502.9 516.9,503.0 517.6,503.2 518.3,503.3 519.0,503.4 519.7,503.5 520.4,503.6 521.2,503.7 521.9,503.8 522.6,503.9 523.3,504.0 524.0,504.1 524.7,504.2 525.4,504.3 526.1,504.4 526.8,504.4 527.5,494.5 528.2,485.3 528.9,476.7 529.6,468.7 530.3,461.2 531.1,454.2 531.8,447.7 532.5,441.7 533.2,436.1 533.9,430.9 534.6,426.1 535.3,421.6 536.0,417.5 536.7,413.7 537.4,410.2 538.1,406.9 538.8,404.0 539.5,401.2 540.2,398.7 541.0,396.5 541.7,394.4 542.4,392.5 543.1,390.8 543.8,389.3 544.5,387.9 545.2,386.7 545.9,385.6 546.6,384.7 547.3,383.8 548.0,383.1 548.7,382.5 549.4,382.0 550.1,381.6 550.9,381.3 551.6,381.1 552.3,381.0 553.0,380.9 553.7,380.9 554.4,380.9 555.1,381.1 555.8,381.2 556.5,381.5 557.2,381.7 557.9,382.1 558.6,382.4 559.3,382.8 560.0,383.3 560.8,383.7 561.5,384.2 562.2,384.8 562.9,385.3 563.6,385.9 564.3,386.5 565.0,387.2 565.7,387.8 566.4,388.5 567.1,389.2 567.8,389.9 568.5,390.6 569.2,391.3 569.9,392.0 570.7,392.8 571.4,393.6 572.1,394.3 572.8,395.1 573.5,395.9 574.2,396.7 574.9,397.5 575.6,398.3 576.3,399.1 577.0,399.9 577.7,400.7 578.4,401.5 579.1,402.3 579.8,403.1 580.6,403.9 581.3,404.7 582.0,405.5 582.7,406.3 583.4,407.1 584.1,407.9 584.8,408.7 585.5,409.5 586.2,410.3 586.9,411.1 587.6,411.9 588.3,412.7 589.0,413.4 589.7,414.2 590.5,415.0 591.2,415.7 591.9,416.5 592.6,417.2 593.3,418.0 594.0,418.7 594.7,419.4 595.4,420.2 596.1,420.9 596.8,421.6 597.5,422.4 598.2,423.1 598.9,423.9 599.6,424.7 600.4,425.5 601.1,426.3 601.8,427.2 602.5,428.1 603.2,429.0 603.9,430.0 604.6,431.1 605.3,432.2 606.0,433.3 606.7,434.5 607.4,435.7 608.1,436.9 608.8,438.1 609.5,439.3 610.3,440.5 611.0,441.6 611.7,442.6 612.4,443.5 613.1,444.3 613.8,444.9 614.5,445.4 615.2,445.7 615.9,445.9 616.6,445.9 617.3,445.7 618.0,445.4 618.7,445.0 619.4,444.4 620.2,443.9 620.9,443.2 621.6,442.6 622.3,441.9 623.0,441.3 623.7,440.7 624.4,440.2 625.1,439.7 625.8,439.3 626.5,439.0 627.2,438.8 627.9,438.7 628.6,438.6 629.3,438.6 630.1,438.7 630.8,438.8 631.5,439.0 632.2,439.2 632.9,439.5 633.6,439.9 634.3,440.3 635.0,440.7 635.7,441.2 636.4,441.7 637.1,442.3 637.8,442.8 638.5,443.4 639.2,444.1 640.0,444.7 640.7,445.4 641.4,446.1 642.1,446.9 642.8,447.6 643.5,448.4 644.2,449.2 644.9,450.0 645.6,450.8 646.3,451.6 647.0,452.5 647.7,453.3 648.4,454.2 649.1,455.0 649.9,455.9 650.6,456.7 651.3,457.5 652.0,458.4 652.7,459.2 653.4,460.0 654.1,460.8 654.8,461.6 655.5,462.4 656.2,463.2 656.9,464.0 657.6,464.7 658.3,465.4 659.0,466.1 659.8,466.8 660.5,467.5 661.2,468.2 661.9,468.8 662.6,469.4 663.3,470.0 664.0,470.6 664.7,471.2 665.4,471.7 666.1,472.3 666.8,472.8 667.5,473.3 668.2,473.8 668.9,474.3 669.7,474.8 670.4,475.2 671.1,475.6 671.8,476.1 672.5,476.5 673.2,476.9 673.9,477.3 674.6,477.7 675.3,478.0 676.0,478.4 676.7,478.8 677.4,479.1 678.1,479.5 678.8,479.8 679.6,480.1 680.3,480.5 681.0,480.8 681.7,481.1 682.4,481.4 683.1,481.7 683.8,482.0 684.5,482.3 685.2,482.6 685.9,482.9 686.6,483.2 687.3,483.5 688.0,483.7 688.7,484.0 689.5,484.3 690.2,484.6 690.9,484.8 691.6,485.1 692.3,485.3 693.0,485.6 693.7,485.9 694.4,486.1 695.1,486.4 695.8,486.6 696.5,486.9 697.2,487.1 697.9,487.4 698.6,487.6 699.4,487.8 700.1,488.1 700.8,488.3 701.5,488.5 702.2,488.8 702.9,489.0 703.6,489.2 704.3,489.5 705.0,489.7 705.7,489.9 706.4,490.1 707.1,490.3 707.8,490.6 708.5,490.8 709.3,491.0 710.0,491.2 710.7,491.4 711.4,491.6 712.1,491.8 712.8,492.0 713.5,492.2 714.2,492.4 714.9,492.6 715.6,492.8 716.3,493.0 717.0,493.2 717.7,493.4 718.4,493.6 719.2,493.8 719.9,494.0 720.6,494.2 721.3,494.3 722.0,494.5 722.7,494.7 723.4,494.9 724.1,495.1 724.8,495.2 725.5,495.4 726.2,495.6 726.9,495.8 727.6,495.9 728.3,496.1 729.1,496.3 729.8,496.4 730.5,496.6 731.2,496.8 731.9,496.9 732.6,497.1 733.3,497.3 734.0,497.4 734.7,497.6 735.4,497.7 736.1,497.9 736.8,498.0 737.5,498.2 738.2,498.3 739.0,498.5 739.7,498.6 740.4,498.8 741.1,498.9 741.8,499.1 742.5,499.2 743.2,499.4 743.9,499.5 744.6,499.6 745.3,499.8 746.0,499.9 746.7,500.1 747.4,500.2 748.1,500.3 748.9,500.5 749.6,500.6 750.3,500.7 751.0,500.9 751.7,501.0 752.4,501.1 753.1,501.2 753.8,501.4 754.5,501.5 755.2,501.6 755.9,501.7 756.6,501.9 757.3,502.0 758.0,502.1 758.8,502.2 759.5,502.3 760.2,502.4 760.9,502.6 761.6,502.7 762.3,502.8 763.0,502.9 763.7,503.0 764.4,503.1 765.1,503.2 765.8,503.3 766.5,503.5 767.2,503.6 767.9,503.7 768.7,503.8 769.4,503.9 770.1,504.0 770.8,504.1 771.5,504.2 772.2,504.3 772.9,504.4 773.6,504.5 774.3,504.6 775.0,504.7 775.7,504.8 776.4,504.9 777.1,505.0 777.8,505.1 778.6,505.2 779.3,504.2 780.0,494.4 780.7,485.3 781.4,476.7 782.1,468.7 782.8,461.3 783.5,454.4 784.2,447.9 784.9,441.9 785.6,436.4 786.3,431.2 787.0,426.4 787.7,422.0 788.5,417.9 789.2,414.1 789.9,410.6 790.6,407.4 791.3,404.4 792.0,401.7 792.7,399.2 793.4,397.0 794.1,394.9 794.8,393.1 795.5,391.4 796.2,389.9 796.9,388.5 797.6,387.3 798.4,386.2 799.1,385.3 799.8,384.5 800.5,383.8 801.2,383.2 801.9,382.7 802.6,382.3 803.3,382.0 804.0,381.8 804.7,381.6 805.4,381.5 806.1,381.5 806.8,381.6 807.5,381.7 808.3,381.9 809.0,382.1 809.7,382.4 810.4,382.7 811.1,383.1 811.8,383.5 812.5,383.9 813.2,384.4 813.9,384.9 814.6,385.4 815.3,386.0 816.0,386.6 816.7,387.2 817.4,387.8 818.2,388.4 818.9,389.1 819.6,389.8 820.3,390.5 821.0,391.2 821.7,391.9 822.4,392.6 823.1,393.4 823.8,394.1 824.5,394.9 825.2,395.7 825.9,396.5 826.6,397.2 827.3,398.0 828.1,398.8 828.8,399.6 829.5,400.4 830.2,401.2 830.9,402.0 831.6,402.8 832.3,403.6 833.0,404.4 833.7,405.2 834.4,406.0 835.1,406.8 835.8,407.6 836.5,408.4 837.2,409.2 838.0,410.0 838.7,410.8 839.4,411.5 840.1,412.3 840.8,413.1 841.5,413.9 842.2,414.6 842.9,415.4 843.6,416.1 844.3,416.9 845.0,417.6 845.7,418.4 846.4,419.1 847.1,419.8 847.9,420.5 848.6,421.3 849.3,422.0 850.0,422.7 850.7,423.5 851.4,424.2 852.1,425.0 852.8,425.8 853.5,426.6 854.2,427.5 854.9,428.4 855.6,429.3 856.3,430.3 857.0,431.4 857.8,432.5 858.5,433.6 859.2,434.8 859.9,436.0 860.6,437.2 861.3,438.4 862.0,439.6 862.7,440.8 863.4,441.9 864.1,442.9 864.8,443.7 865.5,444.5 866.2,445.1 866.9,445.6 867.7,445.8 868.4,446.0 869.1,445.9 869.8,445.7 870.5,445.4 871.2,445.0 871.9,444.4 872.6,443.8 873.3,443.2 874.0,442.5 874.7,441.9 875.4,441.3 876.1,440.7 876.8,440.1 877.6,439.7 878.3,439.3 879.0,439.0 879.7,438.7 880.4,438.6 881.1,438.5 881.8,438.5 882.5,438.6 883.2,438.7 883.9,438.9 884.6,439.2 885.3,439.5 886.0,439.8 886.7,440.2 887.5,440.7 888.2,441.1 888.9,441.6 889.6,442.2 890.3,442.7 891.0,443.3 891.7,444.0 892.4,444.6 893.1,445.3 893.8,446.0 894.5,446.7 895.2,447.5 895.9,448.3 896.6,449.0 897.4,449.8 898.1,450.6 898.8,451.5 899.5,452.3 900.2,453.1 900.9,454.0 901.6,454.8 902.3,455.6 903.0,456.5 903.7,457.3 904.4,458.1 905.1,459.0 905.8,459.8 906.5,460.6 907.3,461.4 908.0,462.1 908.7,462.9 909.4,463.7 910.1,464.4 910.8,465.1 911.5,465.8 912.2,466.5 912.9,467.2 913.6,467.8 914.3,468.4 915.0,469.0 915.7,469.6 916.4,470.2 917.2,470.8 917.9,471.3 918.6,471.9 919.3,472.4 920.0,472.9 920.7,473.3 921.4,473.8 922.1,474.3 922.8,474.7 923.5,475.1 924.2,475.6 924.9,476.0 925.6,476.4 926.3,476.7 927.1,477.1 927.8,477.5 928.5,477.8 929.2,478.2 929.9,478.5 930.6,478.9 931.3,479.2 932.0,479.5 932.7,479.8 933.4,480.2 934.1,480.5 934.8,480.8 935.5,481.1 936.2,481.3 937.0,481.6 937.7,481.9 938.4,482.2 939.1,482.5 939.8,482.8 940.5,483.0 941.2,483.3 941.9,483.6 942.6,483.8 943.3,484.1 944.0,484.3 944.7,484.6 945.4,484.8 946.1,485.1 946.9,485.3 947.6,485.6 948.3,485.8 949.0,486.1 949.7,486.3 950.4,486.5 951.1,486.8 951.8,487.0 952.5,487.2 953.2,487.4 953.9,487.7 954.6,487.9 955.3,488.1 956.0,488.3 956.8,488.6 957.5,488.8 958.2,489.0 958.9,489.2 959.6,489.4 960.3,489.6 961.0,489.8 961.7,490.0 962.4,490.2 963.1,490.4 963.8,490.6 964.5,490.8 965.2,491.0 965.9,491.2 966.7,491.4 967.4,491.6 968.1,491.8 968.8,492.0 969.5,492.2 970.2,492.3 970.9,492.5 971.6,492.7 972.3,492.9 973.0,493.1 973.7,493.2 974.4,493.4 975.1,493.6 975.8,493.8 976.6,493.9 977.3,494.1 978.0,494.3 978.7,494.4 979.4,494.6 980.1,494.8 980.8,494.9 981.5,495.1 982.2,495.3 982.9,495.4 983.6,495.6 984.3,495.7 985.0,495.9 985.7,496.0 986.5,496.2 987.2,496.3 987.9,496.5 988.6,496.6 989.3,496.8 990.0,496.9 990.7,497.1 991.4,497.2 992.1,497.3 992.8,497.5 993.5,497.6 994.2,497.8 994.9,497.9 995.6,498.0 996.4,498.2 997.1,498.3 997.8,498.4 998.5,498.6 999.2,498.7 999.9,498.8 1000.6,499.0 1001.3,499.1 1002.0,499.2 1002.7,499.3 1003.4,499.5 1004.1,499.6 1004.8,499.7 1005.5,499.8 1006.3,499.9 1007.0,500.1 1007.7,500.2 1008.4,500.3 1009.1,500.4 1009.8,500.5 1010.5,500.6 1011.2,500.7 1011.9,500.8 1012.6,501.0 1013.3,501.1 1014.0,501.2 1014.7,501.3 1015.4,501.4 1016.2,501.5 1016.9,501.6 1017.6,501.7 1018.3,501.8 1019.0,501.9 1019.7,502.0 1020.4,502.1 1021.1,502.2 1021.8,502.3 1022.5,502.4 1023.2,502.5 1023.9,502.6 1024.6,502.7 1025.3,502.8 1026.1,502.9 1026.8,503.0 1027.5,503.1 1028.2,503.1 1028.9,503.2 1029.6,503.3 1030.3,503.4 1031.0,503.5 1031.7,501.6 1032.4,491.9 1033.1,482.7 1033.8,474.2 1034.5,466.3 1035.2,458.9 1036.0,452.0 1036.7,445.6 1037.4,439.7 1038.1,434.1 1038.8,429.0 1039.5,424.2 1040.2,419.8 1040.9,415.8 1041.6,412.0 1042.3,408.5 1043.0,405.3 1043.7,402.4 1044.4,399.7 1045.1,397.3 1045.9,395.0 1046.6,393.0 1047.3,391.1 1048.0,389.4 1048.7,387.9 1049.4,386.6 1050.1,385.4 1050.8,384.3 1051.5,383.4 1052.2,382.6 1052.9,381.9 1053.6,381.3 1054.3,380.8 1055.0,380.4 1055.8,380.1 1056.5,379.9 1057.2,379.7 1057.9,379.7 1058.6,379.7 1059.3,379.7 1060.0,379.9 1060.7,380.0 1061.4,380.3 1062.1,380.5 1062.8,380.9 1063.5,381.2 1064.2,381.6 1064.9,382.0 1065.7,382.5 1066.4,383.0 1067.1,383.6 1067.8,384.1 1068.5,384.7 1069.2,385.3 1069.9,385.9 1070.6,386.6 1071.3,387.2 1072.0,387.9 1072.7,388.6 1073.4,389.3 1074.1,390.0 1074.8,390.8 1075.6,391.5 1076.3,392.3 1077.0,393.0 1077.7,393.8 1078.4,394.6 1079.1,395.3 1079.8,396.1 1080.5,396.9 1081.2,397.7 1081.9,398.5 1082.6,399.3 1083.3,400.1 1084.0,400.9 1084.7,401.7 1085.5,402.5 1086.2,403.3 1086.9,404.1 1087.6,404.9 1088.3,405.7 1089.0,406.5 1089.7,407.2 1090.4,408.0 1091.1,408.8 1091.8,409.6 1092.5,410.4 1093.2,411.1 1093.9,411.9 1094.6,412.7 1095.4,413.4 1096.1,414.2 1096.8,414.9 1097.5,415.6 1098.2,416.4 1098.9,417.1 1099.6,417.8 1100.3,418.5 1101.0,419.3 1101.7,420.0 1102.4,420.7 1103.1,421.5 1103.8,422.2 1104.5,423.0 1105.3,423.8 1106.0,424.6 1106.7,425.5 1107.4,426.4 1108.1,427.3 1108.8,428.3 1109.5,429.4 1110.2,430.5 1110.9,431.6 1111.6,432.8 1112.3,434.0 1113.0,435.2 1113.7,436.4 1114.4,437.6 1115.2,438.8 1115.9,439.8 1116.6,440.8 1117.3,441.7 1118.0,442.4 1118.7,443.0 1119.4,443.5 1120.1,443.7 1120.8,443.9 1121.5,443.8 1122.2,443.6 1122.9,443.3 1123.6,442.8 1124.3,442.3 1125.1,441.7 1125.8,441.0 1126.5,440.4 1127.2,439.7 1127.9,439.1 1128.6,438.5 1129.3,438.0 1130.0,437.5"/>

  <text x="88" y="145" class="label" fill="#1f5f8b">ECG</text>
  <text x="88" y="410" class="label" fill="#b23a48">PPG</text>
  <text x="88" y="648" class="tiny">Time (seconds)</text>

  <!-- ECG labels -->
  <rect class="box" x="335.0" y="118" width="86" height="34"/>
  <text x="342.6" y="141" class="small">P ?</text>
  <path class="arrow" d="M 383.0 152 L 410.7 230.5"/>

  <rect class="box" x="415.8" y="88" width="126" height="34"/>
  <text x="423.3" y="111" class="small">QRS ??</text>
  <path class="arrow" d="M 456.1 122 L 461.2 103.2"/>

  <rect class="box" x="486.4" y="128" width="92" height="34"/>
  <text x="494.0" y="151" class="small">R peak</text>
  <path class="arrow" d="M 491.5 162 L 461.2 103.2"/>

  <rect class="box" x="567.2" y="150" width="86" height="34"/>
  <text x="574.8" y="173" class="small">T ?</text>
  <path class="arrow" d="M 567.2 184 L 531.9 207.6"/>

  <!-- PPG labels -->
  <rect class="box" x="441.0" y="410" width="126" height="54"/>
  <text x="448.6" y="432" class="small">???</text>
  <text x="448.6" y="454" class="tiny">??????</text>
  <path class="arrow" d="M 514.2 410 L 544.5 387.9"/>

  <rect class="box" x="581.6" y="384" width="84" height="34"/>
  <text x="594.6" y="407" class="small">??</text>
  <path class="arrow" d="M 581.6 418 L 553.6 380.9"/>

  <rect class="box" x="653.1" y="502" width="138" height="34"/>
  <text x="665.1" y="525" class="small">dicrotic notch</text>
  <path class="arrow" d="M 653.1 502 L 615.1 445.7"/>

  <!-- PAT and RR -->
  <line class="dash" x1="461.2" y1="100" x2="461.2" y2="535"/>
  <line class="dash" x1="526.8" y1="100" x2="526.8" y2="535"/>
  <path class="double" d="M 461.2 340 L 526.8 340"/>
  <rect class="note" x="346.0" y="352" width="296" height="34"/>
  <text x="494.0" y="375" text-anchor="middle" class="small">PAT: R peak ? PPG ??</text>

  <path class="doubleGreen" d="M 208.8 104 L 461.2 104"/>
  <rect class="greenNote" x="205.0" y="36" width="260" height="34"/>
  <text x="335.0" y="59" text-anchor="middle" class="small">RR interval -> HR / HRV</text>

  <!-- artifact -->
  <polyline class="artifact" points="1003.8,585.0 1004.3,579.3 1004.7,573.7 1005.2,568.6 1005.7,564.0 1006.1,560.2 1006.6,557.3 1007.0,555.4 1007.5,554.4 1008.0,554.5 1008.4,555.6 1008.9,557.6 1009.3,560.4 1009.8,563.9 1010.3,567.9 1010.7,572.2 1011.2,576.7 1011.6,581.0 1012.1,585.1 1012.6,588.7 1013.0,591.7 1013.5,594.0 1014.0,595.4 1014.4,596.0 1014.9,595.6 1015.3,594.4 1015.8,592.3 1016.3,589.6 1016.7,586.2 1017.2,582.5 1017.6,578.6 1018.1,574.6 1018.6,570.8 1019.0,567.3 1019.5,564.4 1019.9,562.2 1020.4,560.8 1020.9,560.3 1021.3,560.8 1021.8,562.3 1022.2,564.7 1022.7,568.0 1023.2,572.2 1023.6,577.0 1024.1,582.2 1024.6,587.8 1025.0,593.4 1025.5,598.9 1025.9,604.1 1026.4,608.8 1026.9,612.8 1027.3,616.0 1027.8,618.2 1028.2,619.4 1028.7,619.5 1029.2,618.6 1029.6,616.7 1030.1,613.9 1030.5,610.3 1031.0,606.1 1031.5,601.5 1031.9,596.6 1032.4,591.6 1032.9,586.8 1033.3,582.4 1033.8,578.5 1034.2,575.2 1034.7,572.8 1035.2,571.2 1035.6,570.6 1036.1,570.8 1036.5,572.0 1037.0,573.9 1037.5,576.5 1037.9,579.7 1038.4,583.3 1038.8,587.0 1039.3,590.8 1039.8,594.3 1040.2,597.5 1040.7,600.1 1041.1,601.9 1041.6,603.0 1042.1,603.2 1042.5,602.4 1043.0,600.7 1043.5,598.0 1043.9,594.6 1044.4,590.5 1044.8,585.8 1045.3,580.7 1045.8,575.4 1046.2,570.2 1046.7,565.1 1047.1,560.5 1047.6,556.6 1048.1,553.3 1048.5,551.0 1049.0,549.7 1049.4,549.4 1049.9,550.1 1050.4,552.0 1050.8,554.7 1051.3,558.4 1051.8,562.7 1052.2,567.6 1052.7,572.9 1053.1,578.3 1053.6,583.7 1054.1,588.8 1054.5,593.4 1055.0,597.5 1055.4,600.8 1055.9,603.3 1056.4,604.8 1056.8,605.3 1057.3,604.9 1057.7,603.7 1058.2,601.6 1058.7,598.8 1059.1,595.5 1059.6,591.8 1060.0,588.0 1060.5,584.3 1061.0,580.7 1061.4,577.6 1061.9,575.1 1062.4,573.2 1062.8,572.2 1063.3,572.1 1063.7,572.9 1064.2,574.6 1064.7,577.1 1065.1,580.4 1065.6,584.3 1066.0,588.7 1066.5,593.4 1067.0,598.2 1067.4,602.9 1067.9,607.2 1068.3,611.1 1068.8,614.3 1069.3,616.7 1069.7,618.1 1070.2,618.6 1070.7,618.0 1071.1,616.3 1071.6,613.7 1072.0,610.1 1072.5,605.8 1073.0,600.9 1073.4,595.4 1073.9,589.8 1074.3,584.1 1074.8,578.5 1075.3,573.4 1075.7,568.7 1076.2,564.8 1076.6,561.7 1077.1,559.5 1077.6,558.4 1078.0,558.2 1078.5,559.0 1078.9,560.8 1079.4,563.3 1079.9,566.5 1080.3,570.1 1080.8,574.1 1081.3,578.3 1081.7,582.3 1082.2,586.1 1082.6,589.4 1083.1,592.1 1083.6,594.1 1084.0,595.3 1084.5,595.5 1084.9,594.9 1085.4,593.4 1085.9,591.1 1086.3,588.1 1086.8,584.5 1087.2,580.5 1087.7,576.2 1088.2,572.0 1088.6,567.9 1089.1,564.2 1089.5,561.0 1090.0,558.5 1090.5,556.9 1090.9,556.2 1091.4,556.5 1091.9,557.8 1092.3,560.1 1092.8,563.4 1093.2,567.4 1093.7,572.2 1094.2,577.5 1094.6,583.1 1095.1,588.9 1095.5,594.6 1096.0,600.0 1096.5,604.9 1096.9,609.2 1097.4,612.6 1097.8,615.2 1098.3,616.7 1098.8,617.3 1099.2,616.7 1099.7,615.2 1100.2,612.8 1100.6,609.7 1101.1,605.8 1101.5,601.6 1102.0,597.0 1102.5,592.4 1102.9,588.0 1103.4,583.8 1103.8,580.2 1104.3,577.2 1104.8,575.0"/>
  <rect class="box" x="880" y="602" width="220" height="44"/>
  <text x="892" y="622" class="small">motion artifact</text>
  <text x="892" y="640" class="tiny">?????????????</text>
  <path class="arrow" d="M 930 602 L 1046.7 585"/>
</svg>
